Coordinates
version=1
nRows=5
nColumns=63
inDegrees=yes

Units are S.I. units (second, meters, Newtons, ...)
If the header above contains a line with 'inDegrees', this indicates whether rotational values are in degrees (yes) or radians (no).

endheader
time	pelvis_tilt	pelvis_list	pelvis_rotation	pelvis_tx	pelvis_ty	pelvis_tz	hip_flexion_r	hip_adduction_r	hip_rotation_r	knee_angle_r	knee_angle_r_beta	ankle_angle_r	subtalar_angle_r	mtp_angle_r	hip_flexion_l	hip_adduction_l	hip_rotation_l	knee_angle_l	knee_angle_l_beta	ankle_angle_l	subtalar_angle_l	mtp_angle_l	L5_S1_Flex_Ext	L5_S1_Lat_Bending	L5_S1_axial_rotation	L4_L5_Flex_Ext	L4_L5_Lat_Bending	L4_L5_axial_rotation	L3_L4_Flex_Ext	L3_L4_Lat_Bending	L3_L4_axial_rotation	L2_L3_Flex_Ext	L2_L3_Lat_Bending	L2_L3_axial_rotation	L1_L2_Flex_Ext	L1_L2_Lat_Bending	L1_L2_axial_rotation	L1_T12_Flex_Ext	L1_T12_Lat_Bending	L1_T12_axial_rotation	Abs_r3	Abs_r2	Abs_r1	Abs_t1	Abs_t2	neck_flexion	neck_bending	neck_rotation	arm_flex_r	arm_add_r	arm_rot_r	elbow_flex_r	pro_sup_r	wrist_flex_r	wrist_dev_r	arm_flex_l	arm_add_l	arm_rot_l	elbow_flex_l	pro_sup_l	wrist_flex_l	wrist_dev_l
      1.62711864	      0.28429691	     -4.22634637	     87.94247524	      0.19134139	      0.88085489	      0.55554145	      8.09303381	     -0.40525655	     -3.02490919	     16.08408217	      0.28072019	     40.99238402	      5.57415508	      0.00000000	      9.72677622	      0.57423657	     12.03775520	     16.05996809	      0.28029932	     44.54696467	    -12.40142231	      0.00000000	      0.06913424	     -0.14308059	      0.37855587	      0.12838919	     -0.19029718	      0.40221561	      0.11358064	     -0.34788614	      0.40221561	      0.07901352	     -0.34788614	      0.33123638	      0.06419805	     -0.29176994	      0.30757664	      0.03950330	     -0.22163183	      0.28391690	      0.49381895	     -1.61855624	      2.10541417	      0.00000000	      0.00000000	     -6.29646768	      8.00020726	     -3.95154587	    132.64184072	    -39.30672564	     19.72733780	    120.23658900	     66.17937327	     -2.29964554	     33.59304742	    125.51636035	    -22.58096681	     14.05585109	    119.21553408	     83.52128663	      4.52505948	     33.88814794
      1.64406780	      0.25873931	     -4.19820605	     87.86262807	      0.19168403	      0.88107030	      0.55556579	      8.13405395	     -0.39511035	     -2.75158815	     16.15677796	      0.28198897	     41.08895099	      5.33541114	      0.00000000	      9.61912288	      0.59863660	     12.00870406	     15.97746770	      0.27885942	     44.33120538	    -12.52506057	      0.00000000	      0.07023828	     -0.14743462	      0.46158774	      0.13043951	     -0.19608804	      0.49043698	      0.11539447	     -0.35847253	      0.49043698	      0.08027533	     -0.35847253	      0.40388927	      0.06522327	     -0.30064868	      0.37504004	      0.04013415	     -0.22837622	      0.34619081	      0.50170502	     -1.66780990	      2.56721254	      0.00000000	      0.00000000	     -6.30883525	      8.30655549	     -4.28850458	    132.42750480	    -39.23233547	     19.27195422	    120.23660368	     68.73618615	     -0.80177532	     33.63740591	    125.73547255	    -22.80220691	     14.16817418	    118.75929646	     82.94209482	      8.19751845	     34.01884439
      1.66101695	      0.26412426	     -4.16500649	     87.78996030	      0.19192534	      0.88114888	      0.55591827	      8.20923039	     -0.41452965	     -2.87844786	     16.28380332	      0.28420598	     41.32105653	      5.63363076	      0.00000000	      9.61615767	      0.57529860	     11.78665529	     16.05101015	      0.28014298	     44.27348004	    -12.40574536	      0.00000000	      0.05672626	     -0.14084771	      0.50023999	      0.10534633	     -0.18732745	      0.53150499	      0.09319557	     -0.34245712	      0.53150499	      0.06483244	     -0.34245712	      0.43771000	      0.05267600	     -0.28721665	      0.40644500	      0.03241338	     -0.21817310	      0.37518000	      0.40518998	     -1.59329746	      2.78218478	      0.00000000	      0.00000000	     -6.13683552	      8.30544510	     -4.28019626	    132.46280751	    -38.88136269	     18.89958277	    120.11131670	     71.21594998	      1.06362700	     33.66252610	    126.53125922	    -23.58040701	     14.38852114	    118.24530597	     82.03211040	     12.88082058	     34.12631871
      1.67796610	      0.27981974	     -4.18433953	     87.70231335	      0.19204658	      0.88114415	      0.55620234	      8.33489841	     -0.37091232	     -2.58712775	     16.40366438	      0.28629795	     41.47371550	      5.40647852	      0.00000000	      9.63463565	      0.60427671	     12.08074976	     16.08938132	      0.28081268	     44.04708296	    -12.99655435	      0.00000000	      0.04485490	     -0.13699083	      0.55253203	      0.08330004	     -0.18219780	      0.58706528	      0.07369212	     -0.33307950	      0.58706528	      0.05126467	     -0.33307950	      0.48346552	      0.04165226	     -0.27935170	      0.44893227	      0.02563009	     -0.21219879	      0.41439902	      0.32039408	     -1.54966765	      3.07301737	      0.00000000	      0.00000000	     -5.84347647	      8.22791167	     -4.73185645	    132.99553133	    -39.10836281	     19.25787456	    120.13582717	     70.98364829	      0.86978819	     33.69816931	    127.24304781	    -24.13929025	     14.71417210	    118.00857105	     81.95471844	     15.30043031	     34.19328720
      1.69491525	      0.33738740	     -4.19664076	     87.65029547	      0.19199229	      0.88115580	      0.55640909	      8.43642197	     -0.32824636	     -2.59939378	     16.52535785	      0.28842190	     41.64444048	      5.49913162	      0.00000000	      9.69147545	      0.53997797	     11.96346153	     16.20805523	      0.28288393	     43.97541018	    -12.99264202	      0.00000000	      0.02568755	     -0.12373520	      0.56768007	      0.04770436	     -0.16456782	      0.60316007	      0.04220208	     -0.30084976	      0.60316007	      0.02935831	     -0.30084976	      0.49672006	      0.02385346	     -0.25232082	      0.46124005	      0.01467787	     -0.19166582	      0.42576005	      0.18348363	     -1.39971733	      3.15726622	      0.00000000	      0.00000000	     -5.50637768	      7.88048908	     -5.00315523	    133.62899739	    -39.15292617	     19.68430945	    120.11386088	     69.89459216	      0.37479348	     33.72216864	    127.85600107	    -24.34407074	     14.41153643	    117.78101768	     82.34358917	     18.63907478	     34.23111139
